inDegrees=no
num_controls=7
num_derivatives=13
num_iterations=100
num_multipliers=7
num_parameters=0
num_slacks=7
num_states=26
objective=5.810367
objective_accelerations=0.279162
objective_balance=0.066246
objective_effort=0.377626
objective_height=5.042786
objective_ligament=0.044546
solver_duration=866.272219
status=Solve_Succeeded
success=true
DataType=double
version=3
OpenSimVersion=4.4-2022-07-23-0e9fedc
endheader
time	/jointset/ground_pelvis/pelvis_tilt/value	/jointset/ground_pelvis/pelvis_tx/value	/jointset/ground_pelvis/pelvis_ty/value	/jointset/hip_r/hip_flexion_r/value	/jointset/hip_r/hip_adduction_r/value	/jointset/hip_r/hip_rotation_r/value	/jointset/back/lumbar_extension/value	/jointset/patellofemoral_r/patellar_flexion_r/value	/jointset/knee_r/knee_flexion_r/value	/jointset/knee_r/knee_adduction_r/value	/jointset/knee_r/knee_rotation_r/value	/jointset/ankle_r/ankle_angle_r/value	/jointset/subtalar_r/subtalar_angle_r/value	/jointset/ground_pelvis/pelvis_tilt/speed	/jointset/ground_pelvis/pelvis_tx/speed	/jointset/ground_pelvis/pelvis_ty/speed	/jointset/hip_r/hip_flexion_r/speed	/jointset/hip_r/hip_adduction_r/speed	/jointset/hip_r/hip_rotation_r/speed	/jointset/back/lumbar_extension/speed	/jointset/patellofemoral_r/patellar_flexion_r/speed	/jointset/knee_r/knee_flexion_r/speed	/jointset/knee_r/knee_adduction_r/speed	/jointset/knee_r/knee_rotation_r/speed	/jointset/ankle_r/ankle_angle_r/speed	/jointset/subtalar_r/subtalar_angle_r/speed	/forceset/tau_hip_flexion_r	/forceset/tau_hip_adduction_r	/forceset/tau_hip_rotation_r	/forceset/tau_knee_flexion_r	/forceset/tau_ankle_angle_r	/forceset/tau_subtalar_angle_r	/forceset/tau_lumbar_extension	lambda_cid13_p0	lambda_cid14_p0	lambda_cid14_p1	lambda_cid14_p2	lambda_cid14_p3	lambda_cid14_p4	lambda_cid14_p5	/jointset/ground_pelvis/pelvis_tilt/accel	/jointset/ground_pelvis/pelvis_tx/accel	/jointset/ground_pelvis/pelvis_ty/accel	/jointset/hip_r/hip_flexion_r/accel	/jointset/hip_r/hip_adduction_r/accel	/jointset/hip_r/hip_rotation_r/accel	/jointset/back/lumbar_extension/accel	/jointset/patellofemoral_r/patellar_flexion_r/accel	/jointset/knee_r/knee_flexion_r/accel	/jointset/knee_r/knee_adduction_r/accel	/jointset/knee_r/knee_rotation_r/accel	/jointset/ankle_r/ankle_angle_r/accel	/jointset/subtalar_r/subtalar_angle_r/accel	gamma_cid13_p0	gamma_cid14_p0	gamma_cid14_p1	gamma_cid14_p2	gamma_cid14_p3	gamma_cid14_p4	gamma_cid14_p5
0	-0.006516389897493356	0.0962610784790212	0.9427240395687919	0.1762555651711513	-0.2321526496870292	-0.2616388987865052	-0.0385979564078546	0.07317816487789026	0.07317816487761825	0.1745326565913131	0.1745310987482538	0.0324735960626065	-0.003451767347777641	0	0	0	0	0	0	0	0	0	0	0	0	0	0.2291632242098574	-0.1348176277775719	-0.05201562191212054	-0.4540951535653766	0.510337569973651	-0.1972948412081714	-0.1168195664709485	-39.0764439961843	112.6373745595725	-56.07717479573134	-1.891970692637353	-69.54725416404135	-682.9586360966319	26.01365938045046	-0.588755054233424	-0.002608837656438032	-0.3304144006240318	4.829634271795913	0.1827845443210844	1.971579171754098	-4.147786969291413	7.102832620926993	7.102832620926666	-2.279241064972704	0.07828849493966185	3.587491657871907	1.008304974464918	6.878298876230044e-08	3.637606409330037e-08	-4.772363531057242e-07	1.399790571134106e-07	2.736753074937382e-08	5.858259064190973e-09	-2.53005599203554e-07
0.01	-0.006542300624550161	0.09626119233389864	0.9427082711236081	0.1764881567038785	-0.2321423560334765	-0.2615339635137502	-0.03880643183670544	0.07352326385577819	0.07352326385517963	0.1744183236603841	0.1745257356750195	0.03264954546130817	-0.003400998734694108	-0.005188994501736298	2.898883524887427e-05	-0.003148267290739227	0.04632597538297217	0.002031922226237306	0.0208277844527917	-0.04144255329347094	0.06871327249775298	0.06871327249776032	-0.02271605530969755	-0.001010415960729237	0.0350276699752612	0.01009051064785066	0.2253817748111462	-0.1820100659445517	-0.05039380142423246	-0.4484669844510807	0.4911256120094224	-0.1499093938491156	-0.1138172200803131	-39.08779426544824	108.2319054831616	-36.5061764255378	-4.741257125499375	-67.60029136201834	-683.490508931982	64.95518571326237	-0.4849950314027675	0.00659089426859332	-0.3062184596245856	4.505233179815266	0.209328513344741	2.114521870960218	-4.104609634733273	6.709582362600203	6.709582362600773	-2.245266749667088	-0.1813354645240781	3.436085472758919	0.999883229601968	9.391395031666412e-08	4.696820459935002e-08	-6.37336467615243e-07	1.737073649583985e-07	4.315840926185653e-08	-7.319007867571834e-08	-3.392972514157616e-07
0.02	-0.006620305973340626	0.09626178370715503	0.942661182892247	0.1771782387920686	-0.232112556667392	-0.2612255216389882	-0.03942175682361426	0.07454629711746599	0.07454629711764875	0.1740813343815462	0.1745121426759647	0.0331709077207558	-0.003251233191202296	-0.01041892433378999	9.550367579610959e-05	-0.006263957235435063	0.09149811109634028	0.003901142514969316	0.04070132046207253	-0.081369911601114	0.1355868569315755	0.1355868569315869	-0.04453127004747728	-0.001645984839210842	0.06908257216681428	0.01979938608202517	0.2216003254132498	-0.22920250411069	-0.04877198092808269	-0.4428388153370452	0.4719136540458805	-0.1025239464891378	-0.1108148736898137	-39.12145545700727	103.8916027952165	-16.93880903773653	-7.572784123401431	-65.85531434699168	-683.0815359967605	103.7135518801939	-0.5969421202956612	0.004896363402402716	-0.3238989314153202	4.598866337874808	0.1502441568197134	1.780729483044033	-3.844747972124968	6.734895008142361	6.734895008141376	-2.099072950588207	0.1532579113972518	3.39293810112937	0.9319779317292197	1.190449118710278e-07	5.756034510539967e-08	-7.974365821247617e-07	2.074356728033864e-07	5.894928777433923e-08	-1.522384164156276e-07	-4.255889036279691e-07
0.03	-0.006750070551925638	0.09626245032854261	0.9425829887035183	0.1783147697160359	-0.2320649339203137	-0.2607247849895868	-0.04042855505780049	0.07622981628060553	0.0762298162803231	0.1735308281761568	0.1744957268671328	0.03402733870871714	-0.003006442905981444	-0.01544852213342571	-3.272654467445419e-05	-0.00937731411285723	0.1356240061739321	0.005585206011329088	0.05933945954963577	-0.119732007538291	0.2008349253425488	0.2008349253425445	-0.06539583180876637	-0.001636644606522178	0.1019627217509362	0.02906621391788149	0.2127115517632087	-0.2072709659479304	-0.04629004118648702	-0.427918461509414	0.4520151364310068	-0.1137919187123326	-0.1042756286147144	-39.17673266849635	97.05747332276918	-22.99004382327475	-6.652658635423156	-60.24926462326037	-682.721838322723	90.04520865168783	-0.4431365289911821	-0.03225293568176221	-0.3054498731197178	4.291849257726903	0.1716822103530672	1.889425384728977	-3.793281247322964	6.377431309671768	6.377431309670294	-2.054125755953716	-0.07508448545324611	3.199440735101355	0.9100643728905468	1.314052731659946e-07	6.068942559723215e-08	-8.765437399832368e-07	2.042608318511566e-07	6.815095216147935e-08	-2.175902501482571e-07	-4.475764504476448e-07
